<mxfile host="65bd71144e">
    <diagram id="6a2RbmL3jFc4umyu9uBT" name="Page-1">
        <mxGraphModel dx="728" dy="391" grid="1" gridSize="10" guides="1" tooltips="1" connect="1" arrows="1" fold="1" page="1" pageScale="1" pageWidth="850" pageHeight="1100" math="0" shadow="0">
            <root>
                <mxCell id="0"/>
                <mxCell id="1" parent="0"/>
                <mxCell id="4" value="Cluster&lt;br&gt;" style="points=[[0,0],[0.25,0],[0.5,0],[0.75,0],[1,0],[1,0.25],[1,0.5],[1,0.75],[1,1],[0.75,1],[0.5,1],[0.25,1],[0,1],[0,0.75],[0,0.5],[0,0.25]];outlineConnect=0;gradientColor=none;html=1;whiteSpace=wrap;fontSize=12;fontStyle=0;container=1;pointerEvents=0;collapsible=0;recursiveResize=0;shape=mxgraph.aws4.group;grIcon=mxgraph.aws4.group_vpc;strokeColor=#248814;fillColor=none;verticalAlign=top;align=left;spacingLeft=30;fontColor=#AAB7B8;dashed=0;" vertex="1" parent="1">
                    <mxGeometry x="160" y="80" width="570" height="330" as="geometry"/>
                </mxCell>
                <mxCell id="3" value="" style="shape=image;verticalLabelPosition=bottom;labelBackgroundColor=default;verticalAlign=top;aspect=fixed;imageAspect=0;image=data:image/svg+xml,PHN2ZyB4bWxuczp4bGluaz0iaHR0cDovL3d3dy53My5vcmcvMTk5OS94bGluayIgeG1sbnM9Imh0dHA6Ly93d3cudzMub3JnLzIwMDAvc3ZnIiB3aWR0aD0iMzA0IiB2aWV3Qm94PSIwIDAgMzA0IDM1MSIgaGVpZ2h0PSIzNTEiPgo8bWFzayBmaWxsPSIjZmZmIiBpZD0iYSI+CjxwYXRoIGZpbGwtcnVsZT0iZXZlbm9kZCIgZmlsbD0iI2ZmZiIgZD0ibTAgMGgzMTMuMzAzMTU1djE1OS44NjQ4NjVoLTMxMy4zMDMxNTV6Ii8+CjwvbWFzaz4KPG1hc2sgZmlsbD0iI2ZmZiIgaWQ9ImIiPgo8cGF0aCBmaWxsLXJ1bGU9ImV2ZW5vZGQiIGZpbGw9IiNmZmYiIGQ9Im0wIDBoMzEzLjMwMzE1NXYxNTkuODY0ODY1aC0zMTMuMzAzMTU1eiIvPgo8L21hc2s+CjxnIHRyYW5zZm9ybT0idHJhbnNsYXRlKC0xMSAtNTEpIiBmaWxsLXJ1bGU9ImV2ZW5vZGQiIGZpbGw9Im5vbmUiPgo8cGF0aCBmaWxsPSIjMGYxNjg5IiBkPSJtMTEuNjc4NTcxNCAxODloMTkuNzg1ODM1N3YyNi43ODloMjMuOTAzN3YtMjYuNzg5aDE5Ljc4NTgzNTh2NzUuMjVoLTE5Ljc4NTgzNTh2LTI4LjY5NTMzM2gtMjMuOTAzN3YyOC42OTUzMzNoLTE5Ljc4NTgzNTd6bTg2LjE3Mzg0MjkgNzUuMjV2LTc1LjI1aDQ2LjgwMzA0Mjd2MTYuMzU0MzMzaC0yNy4wMTcyMDd2MTIuMjQwNjY3aDIzLjkwMzd2MTYuNjU1MzMzaC0yMy45MDM3djEzLjg0NmgyNy4wMTcyMDd2MTYuMTUzNjY3em02OC40OTcxNTY3IDB2LTc1LjI1aDE5Ljc4NTgzNnY1NS4zODRoMjcuMTE3NjQzdjE5Ljg2NnptNzcuNTM2MzcyLTc1LjI1IDMwLjczMzMyOCAyNy44OTI2NjcgMzAuNjMyODkzLTI3Ljg5MjY2N2g4LjkzODc3OXY3NS4yNWgtMTkuODg2Mjcydi0zOC42MjgzMzNsLTE5LjY4NTQgMTcuOTU5NjY2LTE5Ljc4NTgzNS0xNy44NTkzMzN2MzguNTI4aC0xOS44ODYyNzJ2LTc1LjI1eiIvPgo8ZyB0cmFuc2Zvcm09Im1hdHJpeCgxIDAgMCAtMSAxMS45NTgxMzYgNDU1KSI+CjxnIG1hc2s9InVybCgjYSkiIGZpbGw9IiMwZjE2ODkiPgo8cGF0aCB0cmFuc2Zvcm09Im1hdHJpeCguODE5MTUyMDQgLjU3MzU3NjQ0IC0uNTczNTc2NDQgLjgxOTE1MjA0IDExMS44NzAwOTEgLTUxLjcwNjU1NikiIGQ9Im0yMDMuNDYwNjc2IDk1LjY4NzU0MjVjNi45MzYzMSAwIDEyLjU1OTMwMS0xNC44MDkyMTk0IDEyLjU1OTMwMS0zMy4wNzczMTcycy01LjYyMjk5MS0zMy4wNzczMTcyLTEyLjU1OTMwMS0zMy4wNzczMTcyYy02LjkzNjMxMSAwLTEyLjU1OTMwMSAxNC44MDkyMTk0LTEyLjU1OTMwMSAzMy4wNzczMTcyczUuNjIyOTkgMzMuMDc3MzE3MiAxMi41NTkzMDEgMzMuMDc3MzE3MnoiLz4KPHBhdGggdHJhbnNmb3JtPSJtYXRyaXgoLS44MTkxNTIwNCAuNTczNTc2NDQgLjU3MzU3NjQ0IC44MTkxNTIwNCA1OC4wODQ2MTEgNDcuNzA0NzY4KSIgZD0ibTMwLjE0MjMyMjMgOTUuNjg3NTQyNWM2LjkzNjMxMDQgMCAxMi41NTkzMDEtMTQuODA5MjE5NCAxMi41NTkzMDEtMzMuMDc3MzE3MnMtNS42MjI5OTA2LTMzLjA3NzMxNzItMTIuNTU5MzAxLTMzLjA3NzMxNzItMTIuNTU5MzAwOSAxNC44MDkyMTk0LTEyLjU1OTMwMDkgMzMuMDc3MzE3MiA1LjYyMjk5MDUgMzMuMDc3MzE3MiAxMi41NTkzMDA5IDMzLjA3NzMxNzJ6Ii8+CjxwYXRoIHRyYW5zZm9ybT0ibWF0cml4KC0xIDAgMCAxIDI3Mi42Mjg1MjQgNTMuNjcwNzYyKSIgZD0ibTExNi43MzI4MTUgNjYuMjc1MjY3NmM2LjkzNjMxMSAwIDEyLjU1OTMwMS0xNC44MDkyMTkzIDEyLjU1OTMwMS0zMy4wNzczMTcyIDAtMTguMjY4MDk3OC01LjYyMjk5LTMzLjA3NzMxNzEzLTEyLjU1OTMwMS0zMy4wNzczMTcxMy02LjkzNjMxIDAtMTIuNTU5MzAxIDE0LjgwOTIxOTMzLTEyLjU1OTMwMSAzMy4wNzczMTcxMyAwIDE4LjI2ODA5NzkgNS42MjI5OTEgMzMuMDc3MzE3MiAxMi41NTkzMDEgMzMuMDc3MzE3MnoiLz4KPC9nPgo8cGF0aCBzdHJva2Utd2lkdGg9IjIwIiBzdHJva2U9IiMwZjE2ODkiIG1hc2s9InVybCgjYSkiIGQ9Im0yNTEuNDY3MDA2IDE3My4wOTk4NDljLTIwLjIzMDA3Ni0zMy42MDk5NjktNTYuODg5NTY1LTU2LjA2NzkwOC05OC43NTU3NzYtNTYuMDY3OTA4LTQwLjcyMDc5OCAwLTc2LjUxNTg3NjYgMjEuMjQ1OTAxLTk3LjA1ODY5NTkgNTMuMzM0NTg4bTIuMTk4MTEwNyAxMjkuMTY5NTM0YzIwLjg0MDMwMzYgMzAuMjMyNzAxIDU1LjU1NTkwNDIgNTAuMDI2NTkxIDk0Ljg2MDU4NTIgNTAuMDI2NTkxIDM5LjM3NjA5OSAwIDc0LjE0NjQyNC0xOS44NjU4ODcgOTQuOTc0MDQ5LTUwLjE5MTQ5NSIvPgo8L2c+CjxnIHRyYW5zZm9ybT0idHJhbnNsYXRlKDExLjk1ODEzNikiPgo8ZyBtYXNrPSJ1cmwoI2IpIiBmaWxsPSIjMGYxNjg5Ij4KPHBhdGggdHJhbnNmb3JtPSJtYXRyaXgoLjgxOTE1MjA0IC41NzM1NzY0NCAtLjU3MzU3NjQ0IC44MTkxNTIwNCAxMTEuODcwMDkxIC01NC4xNjYwMTYpIiBkPSJtMjAzLjQ2MDY3NiA5NS42ODc1NDI1YzYuOTM2MzEgMCAxMi41NTkzMDEtMTQuODA5MjE5NCAxMi41NTkzMDEtMzMuMDc3MzE3MnMtNS42MjI5OTEtMzMuMDc3MzE3Mi0xMi41NTkzMDEtMzMuMDc3MzE3MmMtNi45MzYzMTEgMC0xMi41NTkzMDEgMTQuODA5MjE5NC0xMi41NTkzMDEgMzMuMDc3MzE3MnM1LjYyMjk5IDMzLjA3NzMxNzIgMTIuNTU5MzAxIDMzLjA3NzMxNzJ6Ii8+CjxwYXRoIHRyYW5zZm9ybT0ibWF0cml4KC0uODE5MTUyMDQgLjU3MzU3NjQ0IC41NzM1NzY0NCAuODE5MTUyMDQgNTguMDg0NjExIDQ1LjI0NTMwOCkiIGQ9Im0zMC4xNDIzMjIzIDk1LjY4NzU0MjVjNi45MzYzMTA0IDAgMTIuNTU5MzAxLTE0LjgwOTIxOTQgMTIuNTU5MzAxLTMzLjA3NzMxNzJzLTUuNjIyOTkwNi0zMy4wNzczMTcyLTEyLjU1OTMwMS0zMy4wNzczMTcyLTEyLjU1OTMwMDkgMTQuODA5MjE5NC0xMi41NTkzMDA5IDMzLjA3NzMxNzIgNS42MjI5OTA1IDMzLjA3NzMxNzIgMTIuNTU5MzAwOSAzMy4wNzczMTcyeiIvPgo8cGF0aCB0cmFuc2Zvcm09Im1hdHJpeCgtMSAwIDAgMSAyNzIuNjI4NTI0IDUxLjIxMTMwMikiIGQ9Im0xMTYuNzMyODE1IDY2LjI3NTI2NzZjNi45MzYzMTEgMCAxMi41NTkzMDEtMTQuODA5MjE5MyAxMi41NTkzMDEtMzMuMDc3MzE3MiAwLTE4LjI2ODA5NzgtNS42MjI5OS0zMy4wNzczMTcxMy0xMi41NTkzMDEtMzMuMDc3MzE3MTMtNi45MzYzMSAwLTEyLjU1OTMwMSAxNC44MDkyMTkzMy0xMi41NTkzMDEgMzMuMDc3MzE3MTMgMCAxOC4yNjgwOTc5IDUuNjIyOTkxIDMzLjA3NzMxNzIgMTIuNTU5MzAxIDMzLjA3NzMxNzJ6Ii8+CjwvZz4KPHBhdGggc3Ryb2tlLXdpZHRoPSIyMCIgc3Ryb2tlPSIjMGYxNjg5IiBtYXNrPSJ1cmwoI2IpIiBkPSJtMjUxLjQ2NzAwNiAxNzAuNjQwMzljLTIwLjIzMDA3Ni0zMy42MDk5NjktNTYuODg5NTY1LTU2LjA2NzkwOC05OC43NTU3NzYtNTYuMDY3OTA4LTQwLjcyMDc5OCAwLTc2LjUxNTg3NjYgMjEuMjQ1OS05Ny4wNTg2OTU5IDUzLjMzNDU4N20yLjE5ODExMDcgMTI5LjE2OTUzNGMyMC44NDAzMDM2IDMwLjIzMjcwMiA1NS41NTU5MDQyIDUwLjAyNjU5MSA5NC44NjA1ODUyIDUwLjAyNjU5MSAzOS4zNzYwOTkgMCA3NC4xNDY0MjQtMTkuODY1ODg2IDk0Ljk3NDA0OS01MC4xOTE0OTQiLz4KPC9nPgo8L2c+Cjwvc3ZnPg==;" vertex="1" parent="4">
                    <mxGeometry y="270" width="51.96" height="60" as="geometry"/>
                </mxCell>
                <mxCell id="2" value="" style="shape=image;verticalLabelPosition=bottom;labelBackgroundColor=default;verticalAlign=top;aspect=fixed;imageAspect=0;image=data:image/jpeg,/9j/4AAQSkZJRgABAQAAAQABAAD/2wCEAAkGBxQQEBEREhMVEBIOEA8XEBUSFRARFRIQFRgWFhUXFRYYHSggGBolGxUTIjMhJSkrLi8uGB8zOD8tNygtLisBCgoKDg0OGhAQGi0mICUuKy0tLS0tLS0tLS4tKy0rLi0tLS0tLS0tLS0tLS0tLS8rLS0tLS0tLS0vLi0tLS0tLf/AABEIAOEA4AMBIgACEQEDEQH/xAAbAAEAAQUBAAAAAAAAAAAAAAAABwECAwQGBf/EAEUQAAICAQEFBAgDBAgDCQAAAAECAAMRBAUGEiExE0FRYQciMkJxgZGhUmKxFCNygiQzkqKywdHxFUNTNERUY3STo+Hw/8QAGgEBAAMBAQEAAAAAAAAAAAAAAAECAwQFBv/EADERAAIBAgQDBgYCAwEAAAAAAAABAgMRBBIhMQVBUWGBkaGx8BMiccHh8TLRFCNSFf/aAAwDAQACEQMRAD8A2IiJ9ed4iIgCVDmUiAXCyXCwTHEjKibszhhKzXiRlJzGxEwBzLhZIysnMjLExiyXBxIsybouiAYkAREQBERAEREAREQBERAEREA14iJqZiIiAIiIAiIgCIiAIiIAiIgCAxiIBeLDKiyY4kZUTdmYMJdNeAZGUm5sRMQslwcStmTdF8REgkREQBERANUNLpryoYzoymVzPExCyXiwStmLl0QDEgkREQBERAEREARme3ukmne416hQxsA7EscLxDOVOD1ORjPh5zvV2Jph/wB3q+daH9ROKvjoUZZZRfkZzqqLtYifMZktf8G0/wD4en/2q/8ASYrN39M3WisfwqF/w4mP/q0/+X5FPjroRVEkfUbnaVuivX5o5P8AjzPJ1m4h61XA+AsXH95f9JrDiNCXO31/Fy6qxZx0T0dobB1FGS9R4R7yeuuPEkdB8cTzQZ2xlGSvF3Lpp7FYiJJIDYmRbPGY4kNJk3NiJrg4mRbJVxaLJmSIiVJPPiInWYCIiAIDGIgFwsMqLJZK11liFUFmPQKCxPwA6yLIm5kFglQ0wkYJB5EHBB5YPhEjKLmxEwAyvGZGQm56+zt3tRqBxVoVXqrseAZHThPU/ETqti7xtWw0+uBptHJLH5LZjxbpnzHI+R6+Bu7vg+mxVcDZSOSlfbrHh+ZfLqPtO80uto1aeoyXofaUgNj+JDzHzE8THSmnarD5eTXvysl6nPUbvqj0YlAJWeQYiInha3ejT1WJUGNru6rirD8JY49Y5x17hk+UtGEpu0VclK+x7s8bam7lGoyWTgc+/XhWz59zfMT2YiE5Qd4uzCbWqIx2zuxdp8sP31Y95AcqPzL1HxGR8J4YMmqctvBuml2bKcV29SOiOfMe6fMfPxnr4biV/lq+P9/g3hW/6I/iX6ihq3KOpR1OGB6j/wCvOWT1lqbiIiAXK+JmBmvKq2JVosma0RE6DIREQBERAEkH0fbNVaf2gjL3Fgp/DWpxgfFgfoPCR6ZJPo+1yvpeyz6+ndgw7+FyXU/Dmw/lM87ijksPp1V/p+7GdTYx71bq9vm2nC249ZTyFuPPubz7+/xkf6mh6mKWKUYdVYEH/bzk2zW1ejrtXhsRbB4OobHwz0nm4XiUqMck1dea/HYZxqNaELxJO1G5mlfojV5/A5/RsiaNvo/q926wfxCtv0AnpR4ph3u2u7+rmnxYkekSiAqwZCUYdCpKkfAjmJ2eo9H9g9i5H/jDJ+haeRrd09VVk9l2gHfUQ/8Ad9r7TojiqFTRTXp62JzRfMwafefW1gAXswH4wj/UsM/eZ33y1pH9Yq+Yrrz9wZ4zoVJVgVI6gggj4gykl4Wi9XFeCJyLobOt2rqL+Vt7uD1XPCp+Krgfab25ul7TW0DGQjFz5cAJB/tcM8gzu/R1ssqr6hhjjHBV/ADlm+BIA/lMyxUoUKEmklyX1fu/cRL5Ys7eIifLnMIiIB5G39hpq0wfVsUfu3HUeR8V8pGWt0j0WNXYOFl6+BHcQe8HxkyTj/SF2fZVZx2xf1PHswPXz5Z4fmR5z0uH4mUZqk9U/L8dfE2pTadjhoiJ7p0iIiAaosEuBmtE6XEyubMTAHMuFkjKybmWJYLBKhhIsyS6ZdBq7abVsoYrZ0AHPjB90jvBOPtMU9nczRdtras8xVmxv5PZ/vFJjWcVTk5K6syJOy1JG2LoDTX67Gy208d7k54rCBnHgowAAOgAnpRE+QlJyd2cgiIkAREQDU1ugquGLa1sHdxAEj4HqPlPB1O4umY5Q2VeSsGH98E/edTE1pV6tL+EmvTwJTa2OU0e42nRgzs9uPdYoF+YUAn64nUVoFAAAAAAAHIADoAJfEVa1Sq7zk2G29xERMiDW1usrpQva61qO9iAM+A8T5TxH330Y6WlvhXb/mBON361pu1joT6mnwiDu4sAufjk4/lE8EIPCezh+FxnTUpt666fpmsad1c7raPpCQAiipnb8VuFUeeAST8OU43V66y+w22sXdvoF7lUdwmECVnp0MJSo/xXfzNIwS2Mi2eMyTXlVbE3cTS5niWK+ZfKNWLHnRETqMRERAERHl49JIGZ3vow0p/pFx6epWp8x6z/AK1zmdlbs6nUMAtbVoetlgKKB4jPNvl9pKmx9mppaUpTog5k9WY82Y+ZM8fiuKgqTpJ3b8vfvtznLSxvxET5wyExV2q3EFYNwNwtgg8LYBwcdDgg48xMs4PZG8VNOu14ssCV2WgoSGI7RP3b4wO/A+k2pUJVIyceSv5pfn6JkpHeRNDQ7YovOKrq7D+FWXi/s9ZvzJpxdmrECIiQBERAEREAhvb3/a9T/wCou/xmaU7nbG47WWvbVaM2u7lbARhmJY4Ze7J8PrPB1e6Wqr/5XaAd9bBvscN9p9TRxlCcVaa5b6ev6OmM1bc8SJddSyNwurIw91wVP0MtnYXEREAS9H8ZZEhq4NaIibFBERADGS9uvsZdJp0HCO1ZQbmx6xY8yufAdAPLxJkb7q7O/adXSmMqrcdn8CYJz5E8K/zSZJ4XGaz+Wkn2v0X38jKb5CJqbQ19enQ2WuK1He3efADqT5CclrfSNSpIqqstx0LEVKfh1P1E8ijh6tX+Eb+njsZ2O4iRfqfSJqW/q6qqx58dh+RyB9p4O0ttanU8rrmZT7owifNVwD88zup8JrSfzWS8fTTzLKDO23r3zVFNOlYPY2Q1q81rHfwn3m+HIfLEjnhlyriX4nuYXCww8Mse99TVKxiKD4Y6fGdBsffDVabALftFY920ksB+V+o+eR5Tw4xNatCFVWmroNIlrYW9en1eFVuC0/8ALswpJ/KejfLn5CdBICesGe7sje/VabC8Xb1j3bcsQPyv7Q+eR5TxcRwhrWk+5/3/AH4mbh0JB1W3DTrk09oVatRUpofmP3wJDIxzjn6uPMgc88vfkXby7y6fXacKyPVfWwNfsMvPAdeLrjHPoOYE2d2t+zWBVq8uo5LcAWYD/wAwdW+I5+R6znnw6o6SnGNmtGuvaut+duexGVkkRNPQ7RqvGarUsH5WBI+I6j5zcnmNNOzKiJ4+0N5NLRntL04h7qHtG+arkj5zwLfSPQDharWHiezXPwHEZvDC1pq8YOxNmddq9HXcvDYi2L4MAfp4Ti9v7k8INmlycczUxyf5GPX4H6909fZO+ml1DBOJqXY4VbQF4j4BgSvyJBM6aaQqV8JO2q7Hs/fYSm4kHEYJB5EEgg8iCOoIidzv7sIcJ1VYwVx24HvL0D/EcgfLn3ThhPo8NXjXpqce/sZ0RldXERE3LGtExCyXCwTfKzO6L4MpxCSDuNuvwhNTeMsQGpQ+6DzDt+bwHd169ObE4mGHhnn3Lq/e75ENpHpbj7BOlpL2DF12Cw/Ag9lPj3nz5d06DV6laq2ssYKiKSxPcB/+6TJZYFBJIAUEkk4AA6knuEizfTeX9rfsqiRp6269O2ce8fyjuHz8MfNUqVTG1nJ976LovRfsyScmeZvFtl9bcbGyta5FKfgTxP5j1P06ATzgJUCJ9TTpxpxUYrRGyQxK4lIlwIiIJEREARiIgDEtIl0QQYzWJV8sMFiw8CSR95fEiwsY1rAl3DLok2BYyAzud0t9FrrFGqLepyrtwXyvcr455Hj4demTxMtKznxGFhXjln+iGrkmbf3x0wpdK2Goe1GUKoPD6wIyxIxjn06/rI4SzxmILLpTC4OGHi4x5iKsbAMrNcHEzI+Z0ONjRM0YiJ1GJaZ1WyN/r9PWKnrW9UACEkowUcgCQCGwMd2fjOWlJhXw9OvHLUVyGj2tvb16jW+q5FdWf6uvIB8OMnm36eU8gWYlFQkEgEgdSASB8TOs9GWjFmqdyAwqpOMgHDsQAfoHmc1TwtGUlHSPL317xsjlhaJ2WyNxnvpW17RUbFDInBxnhPNSx4hjI7v9ptelbUYXTVDoTY58sAKv+JvpNXZ/pG7Oha3pL3VqFBDAK+BgE94PkM/KcNWvia2HhUw0bNt32ei0WrSW4zNnLa3Tmm16nwHqYq2OmR3jy75izLNXqmtse2wgvaxZj0GTz5eUw5nqwhJxV9/vzsWubMTAwKnByD4HIOJUMc47z0HXMZGTmM0TGxKnB5HwIwZTtYyMnMjLExm7xl7HAyQQD0JBAPzkZX0F0ViW9oPGSHuBsap9Kbbaq7S9r8BdVf1FAXlnl7Qec+KrrD0/iSTtexDlZEfRPZ3x4RrbURVrWvs1CqAg9hSeQ8yftPG4ppSk5wjK1rpPxVyVqIjMEiXsSIjMurrLeyC2OuATj6SAWxK5+0pJAiIkAwRETczKGd7uHuoliDU6hQ4Ynsa25rwj32Hfk5wDyxz55GOAMnXZycOlqWv3aKwnhyQcP+U8jjGInSoqMHbM9+z8+hWTPP1+9Oj0r9i9oVlwCqK7BPI8AIB8us9HQUUc76VT+kBSz1gfvAM8JJHXqZBDAkktksSS5bOSx9rPnnMl70eUsuz6uLIDNYyA/gZiR8jzPznmY/h0cLRUoyd7pPo93yS5rbUhqxyPpDc3bRSlTzWumseTuS36Os7zb6V06LUYRQqaewKOEY9khR9cTgNN/SduZ6hdW5+VGeE//Gs670k6ng0DL33W1IPke0P2QzXEQebDUOiTffa/oyOh4Pos0YZtRayg8IrRSQD7XEW/RJ1G09TotHb293BXdYoCnhZ3Kr+FVBIHPmQB3Z7poejLTcGiL/8AWusb5DCfqhnD7+antdoXnqKyla+QRRkf2i/1kzpPF4+pG7SSs7dllbxG7Ou2pam2LatPQ+aKf3t9oUgqTlUReIZDEcfUY7+eMT0ddr9HsitVCYLjktYU2OB1ZmYjl5k/DpND0VVgaa5veOoIP8KohH3Zps7xbf0CXmrVVC2yoAZalLOEMA2AzeRHSYVIf7v8ZKThHkt3zu+9r6LbqDd2TtjTbUqsXg4gmO0ruVcjOcMMEjuPMHIx3SPNu7ttVrxpavW7fhNOe5Gz7R/Lwvz8FzOr0W+Wzqc9jUaS+OLs6UTixnGcdep+sbG2zVrtrCysHgq0ThOMAE2cYyQP4XI+s2w3xcNOpKMJKGVtKXVbeen0F7HrbM2HptnVdo3DlBmy+zGc/lz7IzgBR5dTMmg3q0epfsUtDM2cK6ugfyHGACfLrPC9K3F2OnAz2fatx+HHw+pn5ccjbhEYbh3+ZS+NVm3J3t2d320ViUrna6vX7Po2lXbWMpWLO17NQ1QtIIU1r34yc45ZwR3ySdNcrojqcq6qyHGMqRkHHdyMgSqkuQi9XIVfiTgfrJu21b+z6O9l5djp7OD4hSF++JHFcOo/Cim3L+Or6bebIehzm1t99E9Nyrmx2rdVzWcMSCBzbum56O9GF0KOVBa57GJIGcAlB9l+8iQAA/CTpsCjstHp0PVKK+LH4uEFvvmW4jh4YXD/AA6d/mlfXsT+nVB6IijevUBtdqCoAUWleXIZQBG+6mSju1o1r0enBUA9jWz5A9phxNn5kyG6w2pvA9/UW93P1rG/1aTPvFd2Oi1DDlwUWBPJivCv3ImnFoWhSoL6eCUV6smT0SI93O2Ymt1VjuP3SZs4ByBLN6i8vdHP6ATt9t7xUbP7Ktq3wwPAKkQKqjl3kD5CRju1tx9Fd2qrxoy8Nq5xlc8iD3EEcvmO/MkzZm8Oj2gOyBV2YZNNyjJxzOAchseRMz4nSmqynOLlTS5cvfbytqTLc8jebbeh1Gl4+VtjgioKALUcfizzVQcZzyPdmR8J1O/G7del4b6fVrsfhKEk8D4LDhz3EK3Lux58uXE7+HQpxo3pttPry7C8LW0KRETuLmCJiFsuDidFmZXKmSRuNvXWak017iuyoBa2chVsrHJRk8gwGBg9eWM88RvmGXM48ZhIYmnkl3ENEx7R2VoQx1FyUgk5ZnICsfEjOGJ8wczZG39N2PardXwBOIDiCnAHIcJwQe7GMyEBUB3SvZiea+DZopTqSdtuxdEnf3yIynV+jq9BrHsudVPY2EF2C8VjMucE9+OKel6T9ppYNPVW62YNjvwMrcJwFTOPHL/ScIVzCrid88EpYlYhvbly2ffzJtqS9urr9PVotOpuqXhqUuDYg4Wb1nByeRBJzIo2hf2tttn/AFbbH/tsW/zmv2YlYw2DVGc53u5O/m39wkdJuVvINHay257C/h4iASa3HRsDqMHBxz5Dwwe92hsjR7Q4bSUsIGBZVZz4fAlTz+fSQ8RLDUDMsTw5VKnxacnGXVftBolHWf8ADdn1W18KM1ilXrUi21we4nOUHLPUDl4yPdkbSbS6hL6x/VsTwk+0hyGUnHgTzx1wZpKgErNcPg1TjJSk5OW9+fL097IWJn0W19Lr6uEMlgYDjqs4eNT+ZD4HvHLlyMwvToNArsRTVxqwbOHd1PVQDlmB/CJDjVgwtYE4Vwe11GpJRfL27eRGU3rNVWmp7WlWFVdyvWrnLcKsGAJ+Xn85MWj2jp9dUeFktSxcOhIyARzV16gyEcS1qwZ14zh6xGX5mmue/vrfe5LVzsd/9FpahSmn7NXQ2CxKyGbhIBBc8zkEcsn3p2G6W8NWporUuq3Voq2ISA3EowWUd6nry8cSH1TEo1YMpW4cqtCNOU22rvM9Xr9u+/aLEw216DR3ByKabrHAXvYM5xkKM8A582wAAefKef6QtrVHRGtLEdrrKxhHVjwqeMnAPT1QPmJFy1ASqpiZ0+FKNSNSU3Jrr2bd3eRYkncvWaF9L+zHgWxwO3S7gza47wTyYd4A6T1tHuxotLaNQoFZTiKl7G4UyCCRxHwJ6yIGTMtFQ8P0irwyUpycaskpbrf7rlpsLHab/wC8dep4NPSeNKn43ceyz4KgKe8AM3PpzGJyCtiWAS6ehhsPGhTVOOyLLQzK8umCVV8TVw6F1I1YiJ0GQgGIgF3GZXtDLIkWQMna+UdrMcRlRJl7QS7jEwRIyoXM/EPGMzBEZBc2JWa0rxGRkJuZ4mHjPjK9oZGQjMZpSYu1Mr2vlGVk3MkSztRKiwSLMXLolAZdIJKRKxAEREkCIiAa0RE1KCIiAIiIAiIgCIiAIiIAiIgCIiAIiIAiIgCAxiIBeLZcLBMUSMqJubIMTXBly2+Mq4k3M0S1WzLpUk1oiJqUEREAREQBERAEREAREQBERAEREAREQBERAEREAREQBERAKr1mwIiVkWR//9k=;" vertex="1" parent="4">
                    <mxGeometry x="245.18" y="40" width="79.65" height="80" as="geometry"/>
                </mxCell>
            </root>
        </mxGraphModel>
    </diagram>
</mxfile>